<svg width="900" height="900" viewBox="0 0 900 900" fill="none" xmlns="http://www.w3.org/2000/svg">
  <defs>
    <radialGradient id="g" cx="0" cy="0" r="1" gradientUnits="userSpaceOnUse" gradientTransform="translate(320 260) rotate(55) scale(720)">
      <stop stop-color="#5AA6FF"/>
      <stop offset="0.45" stop-color="#1F6EC9"/>
      <stop offset="1" stop-color="#0B3E7A"/>
    </radialGradient>
    <filter id="s" x="-20%" y="-20%" width="140%" height="140%" color-interpolation-filters="sRGB">
      <feDropShadow dx="0" dy="28" stdDeviation="24" flood-color="#0B3E7A" flood-opacity="0.28"/>
    </filter>
  </defs>
  <rect width="900" height="900" fill="transparent"/>
  <g filter="url(#s)">
    <circle cx="520" cy="430" r="260" fill="url(#g)"/>
    <path d="M610 512c-20 22-53 40-92 40-56 0-98-36-98-92 0-58 45-104 110-104 29 0 54 8 75 22" stroke="#0A2F5F" stroke-opacity="0.45" stroke-width="26" stroke-linecap="round"/>
    <path d="M540 346c-28 4-60 22-60 70 0 45 29 64 58 64 25 0 47-12 63-31" stroke="#0A2F5F" stroke-opacity="0.55" stroke-width="26" stroke-linecap="round"/>
  </g>
</svg>
